<svg width="36" height="35" viewBox="0 0 36 35" fill="none" xmlns="http://www.w3.org/2000/svg">
<mask id="path-1-inside-1" fill="white">
<path fill-rule="evenodd" clip-rule="evenodd" d="M13.2658 10.038V3H22.2895V10.038H13.2658ZM10.2658 10.038V2C10.2658 0.89543 11.1612 0 12.2658 0H23.2896C24.3941 0 25.2895 0.895431 25.2895 2V10.038H33.3947C34.4993 10.038 35.3947 10.9334 35.3947 12.038V22.962C35.3947 24.0665 34.4993 24.962 33.3947 24.962H25.2895V33C25.2895 34.1046 24.3941 35 23.2895 35H12.2658C11.1612 35 10.2658 34.1046 10.2658 33V24.962H2.16065C1.05608 24.962 0.160645 24.0665 0.160645 22.962V12.038C0.160645 10.9334 1.05608 10.038 2.16064 10.038H10.2658ZM10.2658 21.962H3.16064V13.038H10.2658V21.962ZM13.2658 21.962V13.038H22.2895V21.962H13.2658ZM13.2658 24.962V32H22.2895V24.962H13.2658ZM25.2895 21.962H32.3947V13.038H25.2895V21.962Z"/>
</mask>
<path d="M13.2658 3V1H11.2658V3H13.2658ZM13.2658 10.038H11.2658V12.038H13.2658V10.038ZM22.2895 3H24.2895V1H22.2895V3ZM22.2895 10.038V12.038H24.2895V10.038H22.2895ZM10.2658 10.038V12.038H12.2658V10.038H10.2658ZM25.2895 10.038H23.2895V12.038H25.2895V10.038ZM25.2895 24.962V22.962H23.2895V24.962H25.2895ZM10.2658 24.962H12.2658V22.962H10.2658V24.962ZM3.16064 21.962H1.16064V23.962H3.16064V21.962ZM10.2658 21.962V23.962H12.2658V21.962H10.2658ZM3.16064 13.038V11.038H1.16064V13.038H3.16064ZM10.2658 13.038H12.2658V11.038H10.2658V13.038ZM13.2658 13.038V11.038H11.2658V13.038H13.2658ZM13.2658 21.962H11.2658V23.962H13.2658V21.962ZM22.2895 13.038H24.2895V11.038H22.2895V13.038ZM22.2895 21.962V23.962H24.2895V21.962H22.2895ZM13.2658 24.962V22.962H11.2658V24.962H13.2658ZM13.2658 32H11.2658V34H13.2658V32ZM22.2895 32V34H24.2895V32H22.2895ZM22.2895 24.962H24.2895V22.962H22.2895V24.962ZM25.2895 21.962H23.2895V23.962H25.2895V21.962ZM32.3947 21.962V23.962H34.3947V21.962H32.3947ZM32.3947 13.038H34.3947V11.038H32.3947V13.038ZM25.2895 13.038V11.038H23.2895V13.038H25.2895ZM11.2658 3V10.038H15.2658V3H11.2658ZM22.2895 1H13.2658V5H22.2895V1ZM24.2895 10.038V3H20.2895V10.038H24.2895ZM22.2895 8.03802H13.2658V12.038H22.2895V8.03802ZM8.26579 2V10.038H12.2658V2H8.26579ZM12.2658 -2C10.0567 -2 8.26579 -0.209139 8.26579 2H12.2658V2V-2ZM23.2896 -2H12.2658V2H23.2896V-2ZM27.2895 2C27.2895 -0.209137 25.4987 -2 23.2896 -2V2H23.2895H27.2895ZM27.2895 10.038V2H23.2895V10.038H27.2895ZM33.3947 8.03802H25.2895V12.038H33.3947V8.03802ZM37.3947 12.038C37.3947 9.82888 35.6038 8.03802 33.3947 8.03802V12.038H33.3947H37.3947ZM37.3947 22.962V12.038H33.3947V22.962H37.3947ZM33.3947 26.962C35.6038 26.962 37.3947 25.1711 37.3947 22.962H33.3947V22.962V26.962ZM25.2895 26.962H33.3947V22.962H25.2895V26.962ZM27.2895 33V24.962H23.2895V33H27.2895ZM23.2895 37C25.4987 37 27.2895 35.2091 27.2895 33H23.2895V37ZM12.2658 37H23.2895V33H12.2658V37ZM8.26579 33C8.26579 35.2091 10.0566 37 12.2658 37V33H12.2658H8.26579ZM8.26579 24.962V33H12.2658V24.962H8.26579ZM2.16065 26.962H10.2658V22.962H2.16065V26.962ZM-1.83936 22.962C-1.83936 25.1711 -0.048491 26.962 2.16065 26.962V22.962H2.16064H-1.83936ZM-1.83936 12.038V22.962H2.16064V12.038H-1.83936ZM2.16064 8.03802C-0.0484947 8.03802 -1.83936 9.82888 -1.83936 12.038H2.16064V12.038V8.03802ZM10.2658 8.03802H2.16064V12.038H10.2658V8.03802ZM3.16064 23.962H10.2658V19.962H3.16064V23.962ZM1.16064 13.038V21.962H5.16064V13.038H1.16064ZM10.2658 11.038H3.16064V15.038H10.2658V11.038ZM8.26579 13.038V21.962H12.2658V13.038H8.26579ZM11.2658 13.038V21.962H15.2658V13.038H11.2658ZM22.2895 11.038H13.2658V15.038H22.2895V11.038ZM24.2895 21.962V13.038H20.2895V21.962H24.2895ZM13.2658 23.962H22.2895V19.962H13.2658V23.962ZM11.2658 24.962V32H15.2658V24.962H11.2658ZM13.2658 34H22.2895V30H13.2658V34ZM24.2895 32V24.962H20.2895V32H24.2895ZM13.2658 26.962H22.2895V22.962H13.2658V26.962ZM25.2895 23.962H32.3947V19.962H25.2895V23.962ZM34.3947 21.962V13.038H30.3947V21.962H34.3947ZM32.3947 11.038H25.2895V15.038H32.3947V11.038ZM27.2895 21.962V13.038H23.2895V21.962H27.2895Z" fill="#93B8F5" mask="url(#path-1-inside-1)"/>
</svg>
