<svg width="39" height="39" viewBox="0 0 39 39" fill="none" xmlns="http://www.w3.org/2000/svg">
<path d="M36.2143 14.0536C36.2143 14.005 36.2143 13.9564 36.2143 13.9077L34.0786 3.84165C33.6143 1.60474 31.7107 0 29.5286 0H9.00714C6.825 0 4.92143 1.60474 4.45714 3.84165L2.32143 13.9564C2.275 14.1022 2.275 14.1995 2.32143 14.3454C0.928571 15.1721 0 16.7768 0 18.5761V28.3017C0 29.8092 0.789286 31.0736 1.90357 31.9489C1.90357 31.9975 1.85714 32.0948 1.85714 32.192V35.596C1.85714 37.4925 3.29643 39 5.10714 39H6.03571C7.84643 39 9.28571 37.4925 9.28571 35.596V33.1646H29.7143V35.596C29.7143 37.4925 31.1536 39 32.9643 39H33.8929C35.7036 39 37.1429 37.4925 37.1429 35.596V32.192C38.2571 31.3167 39 29.9065 39 28.3017V18.5274C39 16.5337 37.8393 14.8317 36.2143 14.0536Z" fill="#E4E9F3"/>
<path fill-rule="evenodd" clip-rule="evenodd" d="M36.2143 14.0536V13.9077L34.0786 3.84165C33.6143 1.60474 31.7107 0 29.5286 0H9.00714C6.825 0 4.92143 1.60474 4.45714 3.84165L2.32143 13.9564C2.275 14.1022 2.275 14.1995 2.32143 14.3454C0.928571 15.1721 0 16.7768 0 18.5761V28.3017C0 29.8092 0.789286 31.0736 1.90357 31.9489C1.90357 31.969 1.89561 31.9975 1.88627 32.0309C1.87307 32.0781 1.85714 32.135 1.85714 32.192V35.596C1.85714 37.4925 3.29643 39 5.10714 39H6.03571C7.84643 39 9.28571 37.4925 9.28571 35.596V33.1646H29.7143V35.596C29.7143 37.4925 31.1536 39 32.9643 39H33.8929C35.7036 39 37.1429 37.4925 37.1429 35.596V32.192C38.2571 31.3167 39 29.9065 39 28.3017V18.5274C39 16.5337 37.8393 14.8317 36.2143 14.0536ZM6.31429 4.2793C6.59286 2.96633 7.70714 1.99377 9.00714 1.99377H29.5286C30.8286 1.99377 31.9893 2.96633 32.2214 4.2793L34.2179 13.6646H4.64286H4.31786L6.31429 4.2793ZM6.03571 37.0062C6.825 37.0062 7.42857 36.3741 7.42857 35.5474V33.116H5.10714C4.64286 33.116 4.17857 33.0187 3.71429 32.8728V35.5474C3.71429 36.3741 4.31786 37.0062 5.10714 37.0062H6.03571ZM35.2857 35.5474C35.2857 36.3741 34.6821 37.0062 33.8929 37.0062H32.9643C32.175 37.0062 31.5714 36.3741 31.5714 35.5474V33.116H34.3571C34.6821 33.116 35.0071 33.0673 35.2857 33.0187V35.5474ZM34.3571 31.1708C35.8893 31.1708 37.1429 29.8579 37.1429 28.2531V18.5274C37.1429 16.9227 35.8893 15.6097 34.3571 15.6097H4.64286C3.11071 15.6097 1.85714 16.9227 1.85714 18.5274V28.2531C1.85714 29.8579 3.62143 31.1708 5.10714 31.1708H34.3571Z" fill="#4A87ED"/>
<path fill-rule="evenodd" clip-rule="evenodd" d="M3.65527 22.8913C3.65527 21.1815 5.05419 19.7826 6.76397 19.7826C8.47375 19.7826 9.87266 21.1815 9.87266 22.8913C9.87266 24.6011 8.47375 26 6.76397 26C5.05419 26 3.65527 24.6011 3.65527 22.8913ZM5.72774 22.8913C5.72774 23.4612 6.19404 23.9275 6.76397 23.9275C7.3339 23.9275 7.8002 23.4612 7.8002 22.8913C7.8002 22.3214 7.3339 21.8551 6.76397 21.8551C6.19404 21.8551 5.72774 22.3214 5.72774 22.8913Z" fill="#4A87ED"/>
<path fill-rule="evenodd" clip-rule="evenodd" d="M29.3911 22.8913C29.3911 21.1815 30.79 19.7826 32.4998 19.7826C34.2096 19.7826 35.6085 21.1815 35.6085 22.8913C35.6085 24.6011 34.2096 26 32.4998 26C30.79 26 29.3911 24.6011 29.3911 22.8913ZM31.4636 22.8913C31.4636 23.4612 31.9299 23.9275 32.4998 23.9275C33.0697 23.9275 33.536 23.4612 33.536 22.8913C33.536 22.3214 33.0697 21.8551 32.4998 21.8551C31.9299 21.8551 31.4636 22.3214 31.4636 22.8913Z" fill="#4A87ED"/>
</svg>
